<svg xmlns="http://www.w3.org/2000/svg" viewBox="0 0 560.78 172.28"><defs><style>.cls-1{fill:#0087cc;}.cls-1,.cls-2{fill-rule:evenodd;}.cls-2,.cls-3{fill:#979797;}</style></defs><g id="Camada_2" data-name="Camada 2"><g id="Camada_1-2" data-name="Camada 1"><path class="cls-1" d="M91.24,172.28l66.35-33.89ZM80.38,0h-.85A76.48,76.48,0,0,0,54.75,4.05,80.38,80.38,0,0,0,30,17.57a84.34,84.34,0,0,0-10.26,9.75h0l-.85,1-.29.33-.28.35c-.19.22-.38.45-.56.68s-.37.46-.55.7l-.27.35c-.23.29-.45.59-.67.88l-.79,1.07-.13.18-.13.19-.13.18-.38.54-.38.55L14,34.7l-.12.19-.25.37-.24.37-.12.18-.12.19-.12.18-.12.19-.12.18-.35.57c-.35.56-.7,1.12-1,1.69-.19.32-.37.64-.55,1l-.11.2-.22.39-.11.19-.43.78-.21.39-.1.2-.11.19-.1.2-.2.39-.11.2-.2.4-.1.19-.1.2-.1.2-.1.2-.09.2-.1.2-.1.2-.1.2-.19.4-.09.2-.1.2-.09.2-.1.2-.18.4-.1.2c-.05.13-.12.27-.17.4L7,47.5l-.09.2-.18.41-.18.4-.09.2-.08.21-.08.2-.09.21-.09.2-.08.21-.08.2-.09.21-.08.2-.08.2-.08.21-.08.2h0l-.08.21-.08.21-.08.2,0,.1,0,.11L5.18,52l0,.1,0,.1,0,.1h0l0,.1H5l0,.11,0,.1-.07.21,0,.1-.07.21,0,.1-.07.21,0,.1-.07.22h0l0,.1,0,.1,0,.11,0,.1-.07.21,0,.1-.07.21,0,.11,0,.1-.08.21,0,.11,0,.1,0,.1,0,.11,0,.11,0,.1-.1.32,0,.1L3.54,57l0,.11,0,.1,0,.11,0,.1,0,.11,0,.11,0,.1,0,.11-.11.42L2.74,60l-.45,1.77-.08.36,0,0v.15h0v.05l0,.06v.1l-.21.91v.05l-.07.31v0l0,.15v0l0,.1v0l0,.1v0l0,.11v.3l0,.1v0l0,.11-.15.81-.07.41-.08.41L1.22,67l-.07.41-.07.41h0L1,68.27,1,68.68l0,.41-.06.41-.06.41-.05.42,0,.41-.05.41L.53,72l-.08.83L.33,74.05l0,.41h0l0,.42,0,.42,0,.41,0,.42c0,.27,0,.55,0,.83l0,.42,0,.41,0,.41v.42L0,79c0,.27,0,.55,0,.83v2.49c0,.42,0,.84,0,1.25V84l0,.42v.41c0,.42,0,.83.05,1.25h0l0,.41c0,.28,0,.56,0,.84l.06.82,0,.42c0,.28,0,.55.07.83l.07.83.07.83,0,.41,0,.41,0,.41.1.82.17,1.23.06.41.06.41L1,95.6l.06.4.07.41.07.41.06.41.07.41.23,1.22.15.81.08.4.09.41.08.4.08.41.27,1.2.19.81.2.8.2.8.1.4.21.8.11.4.11.4.11.39.12.4.23.79.36,1.18.13.39.12.4.13.39.13.39.27.78.13.39.14.39.14.39.14.38.43,1.16.15.39.15.38.3.77L7,117l.16.38h0l.16.38.16.38.17.37.17.38.17.37.17.38.17.37.17.37.36.75.18.36.18.37L9.74,123l.18.36.19.36.19.37.19.36.2.36.19.36.19.37.4.72.2.35.2.36.41.71.21.35.2.36.21.35.21.35.21.35.22.35.43.7.22.34.21.35.23.34.22.34.22.35.22.34.69,1,.23.34.23.34h0l.23.33.48.67.47.66.48.65.25.33.24.33.25.32.24.32.25.32.25.33.25.31.25.32.26.32.13.15.26.32.13.16.13.15.27.31.12.16.14.15.13.16.13.15.14.15.13.16.13.15.13.16.14.15.27.31.13.15.14.15.13.15.14.16.27.3.13.15.14.15.14.15.14.15.27.3h0l.14.15.14.15.13.15.28.3.14.14.14.15.14.15.28.29.14.15.15.14.14.15.14.15.14.14.73.72.14.14.15.15.14.14.15.14.3.28.14.15.3.28.15.14.15.14.15.14.15.13.15.15.3.27.15.13.15.14.15.13.15.14.15.13.3.27.15.13.46.4.15.13.16.13.15.13.16.13.15.13.62.52.16.13.15.12.32.26.15.13.16.12.16.13.48.37.15.13.32.25.32.25.32.25.65.49.32.24.33.24.33.24.16.12.33.24.16.12.49.35.17.12.33.24.17.11.33.23.16.12.51.34.33.22.68.45.68.43.69.44.68.42.35.21.7.42,1,.61c.35.21.7.4,1.06.6l.7.39.71.39.36.18.36.19.35.19.72.37.36.18,1.09.54,1.09.51.36.17.37.17h0l.36.17.37.16.37.16.73.32.75.31.74.31.74.29.38.15.37.14.75.28.75.28.75.26.38.13.76.26.38.12.75.25.39.12.38.11.18.06.19.06.57.18.19,0,.19.06.19.05.19.06.19.06.38.11.19.05.19,0,.19.06.76.2.2,0,.38.1.19,0,.2.05.38.09.2,0,.19.05.19,0,.2.05.19,0,.19.05.39.09.19,0,.4.09.19,0,.19,0,.2,0,.19,0,.78.15.19,0,.2,0,.19,0,.2,0,.19,0,.78.14.19,0,.39.08.19,0,.59.09.19,0,.2,0,.19,0,.18,0,.19,0,.19,0,.37.06.2,0h0l.93.14.19,0,.38.05.18,0,.19,0,.38,0,.18,0,.2,0,.37,0,.19,0,.56.07.19,0,.19,0,.56.06.38,0,.38,0,.37,0,.38,0,.38,0,.19,0,1.13.09.38,0h.19l.19,0h.19l.38,0h.38l.38,0,.38,0h.19l.38,0,.33,0h7.08l1.24,0,.3,0h.31l.31,0,.31,0,.61,0,.31,0H98l.31,0,.3,0,.31,0,.3,0,.31,0,.31,0,.3,0,.31,0,.3,0,.31,0,.92-.1,1.52-.17.3,0,.31,0,.3,0,.3-.05.31,0,.3,0,.3,0,.3,0,.3-.05.3,0,.31,0,.3-.05.3,0,.6-.1.3-.05.3-.05.3,0,.29-.05.3,0,1.19-.22.18,0,.18,0,.36-.07.18,0,.17,0,.36-.07.18,0,.36-.07.17,0,.18,0,.18,0,.18,0,.18,0,.17,0,.18,0,.18,0,.18,0,.18,0,.17,0,.18,0,.18,0,.18,0,.17,0,.18,0,.36-.09.18,0,.17,0,.18,0,.18,0,.35-.09.17,0,.18,0,.18,0,.18,0,.17,0,.35-.09.35-.09.88-.24.18,0,.17-.05.18,0,.17-.05.17,0,.18-.06.17,0,.18-.05L121,168l.17,0h0l.51-.15.18-.05.68-.21.35-.1.17,0,.17-.06.17-.05.17,0,.17-.06.18-.05h0l.16,0,.18-.06.16-.05.18-.06.16,0,.18-.06.16-.06.17-.05.17,0,.17-.06.17-.06.17-.05.16-.06.17-.06h0l.16,0,.17-.06.17-.06.16-.06.84-.29.17-.06.17-.06.16-.06.17-.05.17-.07.16-.05.17-.06.16-.06.17-.06.16-.06.17-.06.17-.06L130,165l.16-.06.17-.06.17-.06.16-.06.33-.12.16-.06.5-.19.16-.06.16-.06.17-.06.65-.25.33-.13.33-.14.32-.12,1.62-.67.32-.13.32-.14.32-.13.32-.14.64-.27.32-.14.64-.27.63-.29.32-.13.31-.14.63-.29.32-.14.31-.14.31-.14.31-.14.31-.15.63-.29.31-.14.31-.15.31-.15.31-.14.3-.15.31-.15.31-.14.61-.3.31-.15.3-.15.61-.3.3-.15.31-.15.3-.15.3-.15.3-.15.3-.15h0l.3-.15.3-.15.6-.31.3-.15.3-.15.29-.16h0l.29-.15.3-.16.29-.15.6-.32.88-.47.59-.31.58-.32.58-.31.58-.31.58-.33.58-.31.58-.32.57-.32.57-.32.58-.32.57-.32.57-.32h0l.57-.32.56-.32.57-.32,1.69-1,.56-.33,1.12-.64.55-.32.56-.33,1.66-1,.55-.32.56-.32.55-.32.55-.32.55-.31.55-.32,2.19-1.25.54-.31.55-.31.54-.3.55-.3.54-.31h0l.54-.3.54-.3.55-.29.54-.3.54-.29.54-.29.54-.29.54-.29.54-.28.54-.28.55-.28.53-.28.54-.27.54-.27.55-.27.53-.27.54-.26.55-.26.54-.25.54-.25.54-.25.54-.25.54-.24.27-.12.14-.06.14-.06.13-.06h0l.14,0,.13-.06.28-.12h0l.27-.11.27-.11.82-.33.13,0,.14-.06.27-.1.14-.05.14-.05.27-.11.13-.05.14,0,.14-.05.13,0,.14-.05.14,0,.13-.05.68-.23.14-.05.13,0,.14-.05.27-.09.14,0,.14,0,.13-.05.55-.17.13,0,.14,0,.14,0,.13,0h0l.82-.24.13,0,.27-.08.67-.16.14,0,.13,0,.13,0,.13,0,.54-.11.13,0h0l.27,0,.66-.12.14,0,.26,0,.14,0,.13,0,.14,0,.39-.06.14,0,.27,0,.13,0h.14l.26,0,.14,0h.27l.26,0h.27l.14,0h.13l.14,0h3.74l.28,0h.14l.28,0h.14l.14,0h.14l.56.06.14,0,.14,0,.28,0,.14,0,.15,0,.28.05.28,0,.42.08.28.06.28.06.14,0,.14,0,.14,0,.14,0,.15,0,.28.07.14,0,.14,0,.42.12.14.05.14,0,.28.09.14,0,.14,0,.28.09.14.05.14,0,.14.05.14.05.42.15.06,0,.07,0,.07,0,.07,0,.07,0,.14.06.07,0,.14,0,.07,0,.07,0,.06,0,.07,0,.07,0,.07,0,.07,0,.07,0,.06,0,.07,0,.07,0,.07,0,.13.06.07,0,.2.09.07,0,.07,0,.13.06.07,0,.07,0,.06,0,.07,0h0l.07,0,.13.07.07,0,.2.11.07,0,.07,0,.2.11.06,0,.27.14.07,0,.06,0,.2.11.07,0,.07,0,.06,0,.14.07.06,0,.14.07.07,0,.14.07.14.07.07,0,.06,0,.14.07h0l.07,0,.07,0,.07,0,.07,0,.06,0,.07,0,.14.08.07,0,.13.07.07,0,.07,0,.06.05.14.07.07.05.06,0,.07,0,.06,0,.07,0,.07,0,.4.26.06,0,.26.17.07.05.06,0,.07,0,.07.05.06,0,.06,0,.07,0,.06,0,.07,0,.06.05.07,0,.06.05.07,0,.12.09.07.05.06,0,.07.05.12.1h0l.13.1,0,0h.05l0,0h.06l0,0h0l0,0h.08l.06,0h1.14l0,0h0l0,0,0,0h0l0,0,0,0,0,0,0,0,0,0v0l0,0,0,0v0l0,0v0l0,0v0l0-.06V137h0v-.11h0v-.47h0v-.17l0-.08,0,0v0l0-.06,0,0v0h0v0l-.08-.1-.07-.06,0,0-.23-.24-.12-.11-.23-.24-.12-.11-.12-.12h0l-.24-.23-.12-.11-.36-.34-.12-.11h0l-.12-.12L223,134l-.13-.11-.12-.11-.12-.11-.13-.11-.12-.11-.13-.1-.12-.11-.26-.22-.12-.1-.26-.22c-.13-.1-.25-.21-.39-.31l-.13-.11c-.34-.27-.7-.54-1.05-.8l-.27-.2-.14-.1-.27-.19-.27-.19-.41-.28-.14-.09c-.28-.19-.56-.37-.85-.54s-.66-.41-1-.6l-.43-.25L216,129l-.14-.08-.88-.46-.3-.15-.15-.07-.15-.08-.15-.07-.45-.21-.16-.06-.15-.08-.3-.13-.16-.06-.15-.07-.16-.06-.15-.06-.31-.13-.31-.11-.17-.06-.31-.12-.32-.11-.15,0-.32-.11-.48-.15-.17,0-.16,0-.16,0-.16,0-.16,0-.17,0-.16,0-.16,0-.17,0-.16,0-.16,0-.17,0-.16,0-.33-.07-.16,0-.17,0-.17,0-.16,0-.34-.06-.16,0-.1,0-.1,0-.09,0-.2,0-.1,0-.39-.06-.1,0h-.19l-.1,0H205l-.1,0h-.2l-.1,0H204l-.2,0h-.3l-.31,0h-.7l-.3,0H202l-1.11,0h-3.28l-.2,0h-1.23l-.12,0h-.23l-.17,0-.17,0-.16,0h-.17l-.16,0-.17,0-.33,0-.16,0-.17,0-.32,0-.17,0-.16,0-.17,0-.16,0-.33.06-.16,0-.33,0-.16,0-.16,0-.17,0-.16,0-.16,0-.16,0-.16,0-.16,0-.16,0-.32.06-.16,0-.17,0-.8.18-.16,0-.16,0-.32.08-.16,0-.48.12-.15,0-.16,0-.16,0-.16,0-.16,0-.16.05h0l-.31.08-.16,0-.16,0h0l-.16,0-.16,0-.16,0-.15,0-.31.09h0l-.31.09-.63.18-.31.09-.63.19-.62.19-.31.1-.31.09-.31.1-.93.31-1.23.41-.31.11-.61.21-.61.22-.3.11-1.22.45-.3.11-.3.12-.31.12-.3.11h0l-1.2.47-.3.12-.6.24-.3.12-.9.36-.59.25-.3.12-.3.12-.89.38-.3.12h0l-.29.12h0l-.6.25-.29.12-.3.13-.59.25-1.76.76,0,0c-1.85.8-3.7,1.6-5.53,2.41l-3.14,1.37,0,0c-3.36,1.49-6.71,3-10.11,4.32-6.26,2.62-12.59,5-19,7A112.82,112.82,0,0,1,108.66,154a93.18,93.18,0,0,1-11.1.69,88.3,88.3,0,0,1-8.91-.44,79.76,79.76,0,0,1-19.5-4.38A69.39,69.39,0,0,1,37.7,126.32,70.81,70.81,0,0,1,23.86,89.61a70.06,70.06,0,0,1,1.29-19.76,55.49,55.49,0,0,1,7.16-18.23A56.53,56.53,0,0,1,80.13,24.88c.58,0,1.16,0,1.81.05a59.21,59.21,0,0,1,9.75,1.13l1.16.3,1.23.29c.77.2,1.55.4,2.32.64,1.55.54,3,1.09,4.52,1.77a44.19,44.19,0,0,1,15.56,11.53A44.83,44.83,0,0,1,126.83,76.9a35.76,35.76,0,0,1-23.29,28.55,34.72,34.72,0,0,1-12.07,2.12,32.6,32.6,0,0,1-7-.69,28.18,28.18,0,0,1-16.27-9.4A28.71,28.71,0,0,1,61.31,80a29,29,0,0,1,1.28-9.46A22.38,22.38,0,0,1,67.3,62.4a22.83,22.83,0,0,1,16.78-7.5h.07a24.22,24.22,0,0,1,4.64.44,17.53,17.53,0,0,1,4.4,1.47,17.73,17.73,0,0,1,7,6.06,18.32,18.32,0,0,1,3.11,8.72,16.77,16.77,0,0,1-1.68,9.07A14.36,14.36,0,0,1,95.07,87a14.52,14.52,0,0,1-6.26,1.43A13.89,13.89,0,0,1,86,88.11a11.63,11.63,0,0,1-9.11-13.84,1.16,1.16,0,0,0-.71-1.38.86.86,0,0,0-.45-.1,1.21,1.21,0,0,0-1.16.78l-.07.15a14.46,14.46,0,0,0-1,5.77,15.15,15.15,0,0,0,1.49,6,16.55,16.55,0,0,0,9.81,8.43,20.1,20.1,0,0,0,6.4,1,21.58,21.58,0,0,0,7-1.19,22.34,22.34,0,0,0,11.23-8.88,28.33,28.33,0,0,0,1.81-3.3l.39-.88.12-.45.2-.49.06-.25.07-.15.06-.14c.07-.25.07-.2.07-.3a5.66,5.66,0,0,0,.26-.84,30,30,0,0,0,1-7.19,29,29,0,0,0-3.81-14.34A29.81,29.81,0,0,0,95.24,43.8c-.64-.29-1.22-.49-1.93-.74l-.91-.29-.13-.05-.32-.1-.45-.15a40.67,40.67,0,0,0-7.42-1.27c-.78-.05-1.55-.05-2.26-.05a37.25,37.25,0,0,0-12.91,2.32A37.83,37.83,0,0,0,55.68,51.9,38.81,38.81,0,0,0,46.9,65.36a46.92,46.92,0,0,0-2.13,7.54A51.37,51.37,0,0,0,44,80.59a45.86,45.86,0,0,0,9.89,29.12A47.85,47.85,0,0,0,65.65,120.5a57.44,57.44,0,0,0,7.23,3.74,50.74,50.74,0,0,0,7.62,2.46,57.42,57.42,0,0,0,30.27-1.1A57.89,57.89,0,0,0,145,95.38a55.74,55.74,0,0,0,2.84-7.4c.19-.54.39-1.48.58-2.12l.19-.59v-.15l.07-.05a3.89,3.89,0,0,1,.06-.39l.13-.44c.26-1.19.52-2.42.78-3.6A68.09,68.09,0,0,0,111,6.54a64.39,64.39,0,0,0-7-2.76c-.58-.19-1.23-.39-1.81-.59L101.29,3l-1-.3-1.61-.39-1-.25-.91-.19a82.1,82.1,0,0,0-14-1.77C82,0,81.15,0,80.38,0Z"/><path class="cls-2" d="M205.83,44.26l0,44.16c0,6.74-3.42,19.09-19,19.1-10.92,0-22.32-5.21-22.32-21.64l0-41.6h6.64l0,40.84c0,13.59,7.23,19.38,16.06,19.37,8.07,0,14.81-5.14,14.81-17l0-43.21Z"/><rect class="cls-3" x="250.05" y="44.24" width="6.65" height="61.54"/><polygon class="cls-2" points="300.71 105.75 300.68 44.22 308.48 44.21 328.73 94.44 348.56 44.19 356.35 44.19 356.37 105.73 349.73 105.73 349.7 51.7 349.51 51.7 327.12 107.45 326.93 107.45 304.68 52.19 304.49 52.19 304.51 105.75 300.71 105.75"/><polygon class="cls-2" points="407.4 47.2 393.25 47.21 393.25 44.17 428.2 44.16 428.2 47.19 414.05 47.2 414.08 105.7 407.43 105.71 407.4 47.2"/><rect class="cls-3" x="465.86" y="44.14" width="6.64" height="61.54"/><path class="cls-2" d="M535.4,42.4h.19l25.19,63.24H554l-7.51-19.18h-24.7l-7.69,19.19H510Zm-12.52,41H545L534.07,54.94Z"/><path class="cls-2" d="M553.23,147.65a5.34,5.34,0,0,0-1.26-1,3.42,3.42,0,0,0-1.6-.34,3.52,3.52,0,0,0-2.69,1.22,4.83,4.83,0,0,0-1.11,3.36v12.39h-3.83V142.86h3.76v2.21a5.58,5.58,0,0,1,2.1-1.77,7,7,0,0,1,5.45-.24,5.89,5.89,0,0,1,2.07,1.49ZM533.71,153a21.27,21.27,0,0,0-.22-3.18,4.42,4.42,0,0,0-1.09-2.41,3.95,3.95,0,0,0-5.61,0,4.42,4.42,0,0,0-1.09,2.41,23,23,0,0,0,0,6.35,4.42,4.42,0,0,0,1.09,2.41,3.64,3.64,0,0,0,2.79,1.21,3.71,3.71,0,0,0,2.82-1.21,4.42,4.42,0,0,0,1.09-2.41A21.23,21.23,0,0,0,533.71,153Zm3.84,0a20.45,20.45,0,0,1-.45,4.56,7.89,7.89,0,0,1-1.81,3.47,7.33,7.33,0,0,1-2.35,1.73,7.57,7.57,0,0,1-3.36.69,7.47,7.47,0,0,1-3.35-.69,7.35,7.35,0,0,1-2.33-1.73,7.77,7.77,0,0,1-1.8-3.47,22.68,22.68,0,0,1,0-9.09,7.86,7.86,0,0,1,1.8-3.48,7.76,7.76,0,0,1,11.39,0,8,8,0,0,1,1.81,3.48A20.3,20.3,0,0,1,537.55,153Zm-20.83,10.21a5.71,5.71,0,0,1-2.36-.46,4.71,4.71,0,0,1-1.63-1.23,5,5,0,0,1-.94-1.79,7.6,7.6,0,0,1-.3-2.15v-23h3.84v22.75a2.91,2.91,0,0,0,.45,1.78,1.89,1.89,0,0,0,1.61.6h1.7v3.5Zm-14.86-9h-4.47a3.82,3.82,0,0,0-2.56.76,2.78,2.78,0,0,0-.86,2.18,2.74,2.74,0,0,0,.84,2.15,4,4,0,0,0,2.66.74,9.59,9.59,0,0,0,1.95-.18,3.11,3.11,0,0,0,1.62-1,4.4,4.4,0,0,0,.82-3Zm.08,9V161.4a6.53,6.53,0,0,1-2.18,1.6,7.27,7.27,0,0,1-2.9.49,8.76,8.76,0,0,1-3-.46,5.56,5.56,0,0,1-2.09-1.39,6.37,6.37,0,0,1-1.5-4.39,5.71,5.71,0,0,1,1.63-4.21,6.65,6.65,0,0,1,4.95-1.65h5v-1.45a3.94,3.94,0,0,0-.95-2.88,4.49,4.49,0,0,0-3.22-.94,5.8,5.8,0,0,0-2.48.44,4.7,4.7,0,0,0-1.69,1.53L491,145.55a7.33,7.33,0,0,1,2.91-2.31,10.8,10.8,0,0,1,3.93-.62q7.86,0,7.86,7v13.63Zm-20.87,0h-3.15l-8.81-28.63h4.22l6.16,20.83,6.17-20.83H490Zm-27-11.86a12.7,12.7,0,0,0-.13-1.51,5.2,5.2,0,0,0-.39-1.27,4.1,4.1,0,0,0-1.43-1.87,3.87,3.87,0,0,0-2.33-.7,4,4,0,0,0-2.36.7,4.05,4.05,0,0,0-1.44,1.87,4.74,4.74,0,0,0-.38,1.27c0,.39-.09.89-.11,1.51Zm-8.57,2.85a6.52,6.52,0,0,0,1.24,4.21,4.39,4.39,0,0,0,3.61,1.54,5.86,5.86,0,0,0,2.61-.5,7.37,7.37,0,0,0,2-1.59l2.45,2.44a13.31,13.31,0,0,1-1.49,1.38,7.9,7.9,0,0,1-1.57,1,7.71,7.71,0,0,1-1.85.6,11.65,11.65,0,0,1-2.24.2A10.2,10.2,0,0,1,447,163a6.9,6.9,0,0,1-2.72-1.77,8.86,8.86,0,0,1-1.84-3.24,15.23,15.23,0,0,1-.69-4.9c0-3.33.74-5.89,2.22-7.7a7.22,7.22,0,0,1,5.91-2.72,7.87,7.87,0,0,1,3.42.72,7.37,7.37,0,0,1,2.54,2,9.09,9.09,0,0,1,1.57,3.09,13.58,13.58,0,0,1,.55,4v1.81ZM432.76,153a23.73,23.73,0,0,0-.14-2.6,7.06,7.06,0,0,0-.54-2.15,3.49,3.49,0,0,0-1.2-1.47,3.59,3.59,0,0,0-5.36,1.47,6.77,6.77,0,0,0-.57,2.15,26,26,0,0,0,0,5.19,7,7,0,0,0,.57,2.17,3.64,3.64,0,0,0,1.2,1.49,4.28,4.28,0,0,0,4.16,0,3.49,3.49,0,0,0,1.2-1.49,7.27,7.27,0,0,0,.54-2.17A23.68,23.68,0,0,0,432.76,153Zm.07,10.21v-2.18a6,6,0,0,1-2.27,1.92,7.13,7.13,0,0,1-2.77.5,7,7,0,0,1-2.65-.49,5.5,5.5,0,0,1-2-1.32,6.07,6.07,0,0,1-1.15-1.77,9.94,9.94,0,0,1-.65-2.15,15.09,15.09,0,0,1-.29-2.35c0-.81-.05-1.6-.05-2.37s0-1.58.05-2.38a14.69,14.69,0,0,1,.29-2.33,9.94,9.94,0,0,1,.65-2.13,6.07,6.07,0,0,1,1.15-1.77,5.66,5.66,0,0,1,2-1.33,7,7,0,0,1,2.64-.48,7.36,7.36,0,0,1,2.74.48,5.82,5.82,0,0,1,2.26,1.81V134.62h3.83v28.63ZM408.2,157a6.25,6.25,0,0,1-.6,2.81,5.92,5.92,0,0,1-1.65,2,7.23,7.23,0,0,1-2.52,1.23,11.84,11.84,0,0,1-3.16.4,15.74,15.74,0,0,1-4.33-.58,8.37,8.37,0,0,1-3.68-2.36l2.52-2.69a5.66,5.66,0,0,0,2.61,1.71,10.35,10.35,0,0,0,2.88.42,5.88,5.88,0,0,0,3-.69,2.27,2.27,0,0,0,1.2-2.12,2.33,2.33,0,0,0-.58-1.67,3,3,0,0,0-2-.75l-3-.28a6.92,6.92,0,0,1-4.17-1.58,5.23,5.23,0,0,1-1.47-4.05,6.1,6.1,0,0,1,.56-2.65,5.5,5.5,0,0,1,1.55-1.95,7.16,7.16,0,0,1,2.27-1.21,9.07,9.07,0,0,1,2.8-.42,13.72,13.72,0,0,1,3.95.53,7.43,7.43,0,0,1,3.12,1.76L405,147.53a5.21,5.21,0,0,0-2.12-1.15,9.44,9.44,0,0,0-2.57-.34,4,4,0,0,0-2.6.72,2.35,2.35,0,0,0-.87,1.89,2.28,2.28,0,0,0,.55,1.55,3.27,3.27,0,0,0,2.09.79l3,.28a6.82,6.82,0,0,1,4.2,1.63A5.35,5.35,0,0,1,408.2,157Zm-22.93-5.63a12.41,12.41,0,0,0-.14-1.51,5.2,5.2,0,0,0-.39-1.27,4.1,4.1,0,0,0-1.43-1.87A3.87,3.87,0,0,0,381,146a4,4,0,0,0-2.35.7,4.07,4.07,0,0,0-1.45,1.87,4.69,4.69,0,0,0-.37,1.27c-.05.39-.09.89-.12,1.51Zm-8.58,2.85a6.52,6.52,0,0,0,1.25,4.21,4.35,4.35,0,0,0,3.6,1.54,5.94,5.94,0,0,0,2.62-.5,7.68,7.68,0,0,0,2-1.59l2.44,2.44a14.2,14.2,0,0,1-1.48,1.38,8.28,8.28,0,0,1-1.58,1,7.57,7.57,0,0,1-1.85.6,11.62,11.62,0,0,1-2.23.2,10.26,10.26,0,0,1-3.37-.54,6.9,6.9,0,0,1-2.72-1.77,8.86,8.86,0,0,1-1.84-3.24,15.25,15.25,0,0,1-.68-4.9c0-3.33.74-5.89,2.22-7.7a7.21,7.21,0,0,1,5.9-2.72,7.81,7.81,0,0,1,3.42.72,7.37,7.37,0,0,1,2.54,2,9.11,9.11,0,0,1,1.58,3.09,13.93,13.93,0,0,1,.54,4v1.81ZM367,136.55a8.07,8.07,0,0,1-2.16,1.79,4.12,4.12,0,0,1-3.2.18,10.17,10.17,0,0,1-1.37-.68,8,8,0,0,0-1-.55,2.81,2.81,0,0,0-1.07-.22,2.5,2.5,0,0,0-.94.18,4.19,4.19,0,0,0-1.25,1l-1.8-1.89a8.37,8.37,0,0,1,2.14-1.79,4.17,4.17,0,0,1,3.22-.18,8,8,0,0,1,1.37.72,6.78,6.78,0,0,0,1,.56,2.5,2.5,0,0,0,1,.21,2.4,2.4,0,0,0,1-.23,4.08,4.08,0,0,0,1.26-1ZM364.81,153a21.27,21.27,0,0,0-.22-3.18,4.42,4.42,0,0,0-1.09-2.41,3.95,3.95,0,0,0-5.61,0,4.42,4.42,0,0,0-1.09,2.41,23,23,0,0,0,0,6.35,4.42,4.42,0,0,0,1.09,2.41,3.66,3.66,0,0,0,2.79,1.21,3.71,3.71,0,0,0,2.82-1.21,4.42,4.42,0,0,0,1.09-2.41A21.23,21.23,0,0,0,364.81,153Zm3.84,0a20.45,20.45,0,0,1-.45,4.56,7.79,7.79,0,0,1-1.81,3.47A7.44,7.44,0,0,1,364,162.8a7.57,7.57,0,0,1-3.36.69,7.32,7.32,0,0,1-5.68-2.42,7.79,7.79,0,0,1-1.81-3.47,23.18,23.18,0,0,1,0-9.09A7.88,7.88,0,0,1,355,145a7.79,7.79,0,0,1,2.33-1.73,7.61,7.61,0,0,1,3.35-.68,7.36,7.36,0,0,1,5.71,2.41,7.88,7.88,0,0,1,1.81,3.48A20.3,20.3,0,0,1,368.65,153ZM345.9,163.25l-4-7-4,7h-4.63l6.55-10.42-6.28-10h4.62l3.76,6.64,3.72-6.64h4.63l-6.24,10,6.5,10.42Zm-19-11.86a12.7,12.7,0,0,0-.13-1.51,5.2,5.2,0,0,0-.39-1.27,4.17,4.17,0,0,0-1.43-1.87,3.87,3.87,0,0,0-2.33-.7,4,4,0,0,0-2.35.7,4,4,0,0,0-1.45,1.87,4.74,4.74,0,0,0-.38,1.27c-.05.39-.08.89-.11,1.51Zm-8.57,2.85a6.52,6.52,0,0,0,1.24,4.21,4.39,4.39,0,0,0,3.61,1.54,5.86,5.86,0,0,0,2.61-.5,7.37,7.37,0,0,0,2-1.59l2.45,2.44a14.2,14.2,0,0,1-1.48,1.38,8.35,8.35,0,0,1-1.59,1,7.49,7.49,0,0,1-1.84.6,11.62,11.62,0,0,1-2.23.2,10.22,10.22,0,0,1-3.37-.54,6.9,6.9,0,0,1-2.72-1.77,8.86,8.86,0,0,1-1.84-3.24,15.25,15.25,0,0,1-.68-4.9c0-3.33.73-5.89,2.21-7.7a7.22,7.22,0,0,1,5.91-2.72,7.84,7.84,0,0,1,3.42.72,7.24,7.24,0,0,1,2.53,2,9,9,0,0,1,1.59,3.09,13.93,13.93,0,0,1,.54,4v1.81Zm-12.6,9V150.82a4.73,4.73,0,0,0-1.1-3.46,3.76,3.76,0,0,0-2.73-1.08,3.87,3.87,0,0,0-2.78,1.11,4.51,4.51,0,0,0-1.17,3.43v12.43h-3.83V142.86h3.76v2a6.17,6.17,0,0,1,2.31-1.73,7.13,7.13,0,0,1,2.76-.56,7,7,0,0,1,2.65.48,6.15,6.15,0,0,1,2.05,1.37,6.4,6.4,0,0,1,1.51,2.59,11.62,11.62,0,0,1,.41,3.16v13ZM285.06,153a21.27,21.27,0,0,0-.22-3.18,4.36,4.36,0,0,0-1.1-2.41,3.94,3.94,0,0,0-5.6,0,4.42,4.42,0,0,0-1.09,2.41,23,23,0,0,0,0,6.35,4.42,4.42,0,0,0,1.09,2.41,3.84,3.84,0,0,0,5.6,0,4.36,4.36,0,0,0,1.1-2.41A21.23,21.23,0,0,0,285.06,153Zm3.84,0a20.45,20.45,0,0,1-.45,4.56,7.79,7.79,0,0,1-1.81,3.47,7.44,7.44,0,0,1-2.35,1.73,7.57,7.57,0,0,1-3.36.69,7.32,7.32,0,0,1-5.68-2.42,7.79,7.79,0,0,1-1.81-3.47,23.18,23.18,0,0,1,0-9.09,7.88,7.88,0,0,1,1.81-3.48,7.79,7.79,0,0,1,2.33-1.73,7.61,7.61,0,0,1,3.35-.68,7.36,7.36,0,0,1,5.71,2.41,7.88,7.88,0,0,1,1.81,3.48A20.3,20.3,0,0,1,288.9,153ZM269,154.68a12.51,12.51,0,0,1-1.19,3.78,9.39,9.39,0,0,1-2.1,2.78,8.53,8.53,0,0,1-2.86,1.69,10.27,10.27,0,0,1-3.4.56,9.35,9.35,0,0,1-3.88-.79,9.62,9.62,0,0,1-3.16-2.27,7.88,7.88,0,0,1-1.52-2.21,10.22,10.22,0,0,1-.78-2.53,19.5,19.5,0,0,1-.29-3q0-1.67,0-3.72c0-1.36,0-2.61,0-3.72a19.48,19.48,0,0,1,.29-3,10.09,10.09,0,0,1,.78-2.53,8.07,8.07,0,0,1,1.52-2.22,9.77,9.77,0,0,1,3.16-2.27,9.5,9.5,0,0,1,3.88-.78,9.18,9.18,0,0,1,6.28,2.25,10.79,10.79,0,0,1,3.27,6.55h-4.14a7.1,7.1,0,0,0-1.82-3.53,4.8,4.8,0,0,0-3.59-1.37,5.25,5.25,0,0,0-2.22.46,5.11,5.11,0,0,0-1.73,1.27,5.69,5.69,0,0,0-.81,1.23,6.66,6.66,0,0,0-.49,1.64,22.12,22.12,0,0,0-.24,2.43c-.05,1-.08,2.18-.08,3.62s0,2.66.08,3.62a22.08,22.08,0,0,0,.24,2.44,6.66,6.66,0,0,0,.49,1.64,6,6,0,0,0,.81,1.23,5,5,0,0,0,1.73,1.26,5.26,5.26,0,0,0,2.22.47,4.86,4.86,0,0,0,3.61-1.37,7.16,7.16,0,0,0,1.84-3.54Z"/></g></g></svg>